<svg width="15" height="18" viewBox="0 0 15 18" fill="none" xmlns="http://www.w3.org/2000/svg">
<path fill-rule="evenodd" clip-rule="evenodd" d="M14 15.5C14 16.327 13.327 17 12.5 17H2.5C1.673 17 1 16.327 1 15.5V6.498C1 5.67 1.673 4.998 2.5 4.998H12.5C13.327 4.998 14 5.67 14 6.498V15.5ZM7.5 1.5C8.936 1.5 10.107 2.598 10.252 3.998H4.748C4.893 2.598 6.064 1.5 7.5 1.5V1.5ZM12.5 3.998H11.252C11.104 2.046 9.487 0.5 7.5 0.5C5.513 0.5 3.896 2.046 3.748 3.998H2.5C1.122 3.998 0 5.119 0 6.498V15.5C0 16.878 1.122 18 2.5 18H12.5C13.878 18 15 16.878 15 15.5V6.498C15 5.119 13.878 3.998 12.5 3.998V3.998Z" fill="white"/>
</svg>
