<svg width="15" height="15" viewBox="0 0 15 15" fill="none" xmlns="http://www.w3.org/2000/svg">
<path d="M13.9644 13.3431L10.4644 9.84308C11.3461 8.76325 11.7792 7.38595 11.6743 5.99584C11.5694 4.60573 10.9344 3.30906 9.90059 2.37381C8.86679 1.43857 7.51319 0.936244 6.11955 0.970652C4.72591 1.00506 3.39875 1.57357 2.41236 2.55869C1.42597 3.54381 0.855754 4.87024 0.819553 6.26384C0.783353 7.65743 1.28394 9.01168 2.21785 10.0467C3.15176 11.0817 4.44762 11.7183 5.83759 11.825C7.22757 11.9318 8.60542 11.5004 9.68638 10.6201L13.1864 14.1201C13.2375 14.1712 13.2981 14.2117 13.3649 14.2393C13.4316 14.267 13.5031 14.2812 13.5754 14.2812C13.6476 14.2812 13.7192 14.267 13.7859 14.2393C13.8527 14.2117 13.9133 14.1712 13.9644 14.1201C14.0155 14.069 14.056 14.0083 14.0836 13.9416C14.1113 13.8749 14.1255 13.8033 14.1255 13.7311C14.1255 13.6588 14.1113 13.5873 14.0836 13.5206C14.056 13.4538 14.0155 13.3932 13.9644 13.3421V13.3431ZM1.94338 6.41808C1.94358 5.5639 2.19705 4.72897 2.67175 4.01884C3.14645 3.30872 3.82106 2.7553 4.61027 2.42856C5.39948 2.10181 6.26785 2.01643 7.10559 2.18319C7.94333 2.34995 8.71281 2.76137 9.31673 3.36544C9.92065 3.9695 10.3319 4.73907 10.4985 5.57685C10.665 6.41463 10.5794 7.28298 10.2525 8.07212C9.9256 8.86125 9.37202 9.53573 8.66179 10.0103C7.95155 10.4848 7.11656 10.7381 6.26238 10.7381C5.11707 10.737 4.01898 10.2815 3.20921 9.47155C2.39944 8.66159 1.94418 7.5634 1.94338 6.41808V6.41808Z" fill="white"/>
</svg>
