<svg width="16" height="20" viewBox="0 0 16 20" fill="none" xmlns="http://www.w3.org/2000/svg">
<path fill-rule="evenodd" clip-rule="evenodd" d="M8.21685 4.78376C8.11985 4.78376 8.02385 4.77176 7.96385 4.75976C7.95185 4.71176 7.92785 4.56676 7.92785 4.42276C7.92785 3.45976 8.42085 2.50976 8.95085 1.90776C9.62485 1.12576 10.7438 0.535756 11.6818 0.499756C11.7058 0.608756 11.7178 0.740756 11.7178 0.872756C11.7178 1.82376 11.3088 2.77476 10.7318 3.45976C10.1178 4.21876 9.05885 4.78376 8.21685 4.78376M15.0748 6.82876C14.9668 6.91376 13.0658 7.98476 13.0658 10.3668C13.0658 13.1218 15.4848 14.0968 15.5568 14.1208C15.5448 14.1808 15.1718 15.4568 14.2808 16.7568C13.4868 17.8998 12.6568 19.0428 11.3928 19.0428C10.1298 19.0428 9.80485 18.3078 8.34885 18.3078C6.92885 18.3078 6.42385 19.0668 5.26885 19.0668C4.11285 19.0668 3.30685 18.0078 2.38085 16.7078C1.30985 15.1798 0.443848 12.8098 0.443848 10.5588C0.443848 6.94976 2.78985 5.03576 5.09985 5.03576C6.32785 5.03576 7.34985 5.84276 8.11985 5.84276C8.85485 5.84276 9.99785 4.98876 11.3928 4.98876C11.9228 4.98876 13.8238 5.03576 15.0748 6.82876" fill="white"/>
</svg>
